<?xml version="1.0" encoding="UTF-8" standalone="no"?>
<svg
   xmlns:dc="http://purl.org/dc/elements/1.1/"
   xmlns:cc="http://creativecommons.org/ns#"
   xmlns:rdf="http://www.w3.org/1999/02/22-rdf-syntax-ns#"
   xmlns:svg="http://www.w3.org/2000/svg"
   xmlns="http://www.w3.org/2000/svg"
   width="64"
   height="64"
   viewBox="0 0 16.933333 16.933334"
   version="1.1"
   id="svg8">
  <defs
     id="defs2" />
  <metadata
     id="metadata5">
    <rdf:RDF>
      <cc:Work
         rdf:about="">
        <dc:format>image/svg+xml</dc:format>
        <dc:type
           rdf:resource="http://purl.org/dc/dcmitype/StillImage" />
        <dc:title></dc:title>
      </cc:Work>
    </rdf:RDF>
  </metadata>
  <g
     id="layer1">
    <g
       aria-label="其"
       id="text1404"
       style="font-style:normal;font-weight:normal;font-size:16.7799px;line-height:1.25;font-family:sans-serif;fill:#000000;fill-opacity:1;stroke:none;stroke-width:0.419498"
       transform="translate(-1.1575521,-1.1103051)">
      <path
         d="m 17.895318,13.483662 q 0,0.146379 -0.13723,0.146379 l -2.415242,-0.0366 H 3.8887394 l -2.4243916,0.0366 q -0.1463783,0 -0.1463783,-0.146379 v -0.777633 q 0,-0.146379 0.1463783,-0.146379 l 2.4243916,0.0366 H 5.4806042 V 4.883933 H 4.8036043 L 2.2511316,4.920527 q -0.1463784,0 -0.1463784,-0.1463783 V 4.0148114 q 0,-0.1646756 0.1463784,-0.1646756 l 2.5524727,0.036594 h 0.6769999 v -0.484878 q 0,-1.6284593 -0.1189324,-2.1956754 0.6312567,0.027446 1.1984729,0.091486 0.2287162,0.036594 0.2287162,0.155527 0,0.1372297 -0.091487,0.3567972 -0.109784,0.2561624 -0.109784,1.591865 V 3.8867304 H 12.497616 V 3.401852 q 0,-1.6284593 -0.118932,-2.1956754 0.512324,0.027446 1.207622,0.091487 0.228716,0.027445 0.228716,0.1555269 0,0.1372297 -0.100644,0.3567973 -0.109784,0.2470135 -0.109784,1.5918648 v 0.484878 h 0.786783 L 16.9347,3.8501363 q 0.155528,0 0.155528,0.1646757 v 0.7593377 q 0,0.1463783 -0.155528,0.1463783 L 14.391377,4.883934 h -0.786779 v 7.712311 h 1.738243 l 2.415242,-0.0366 q 0.137231,0 0.137231,0.146379 z M 12.497616,12.596244 V 10.592689 H 6.5875906 v 2.003555 z m 0,-2.9184195 V 7.7108652 H 6.5875906 v 1.9669593 z m 0,-2.8818241 V 4.883933 H 6.5875906 V 6.7960004 Z M 7.8958473,14.755325 q 0,0.12808 -0.1921215,0.20127 -0.2561622,0.109784 -0.5763649,0.375095 -1.9761079,1.646755 -4.235824,2.515878 -0.2653108,0.07319 -0.2836081,0.07319 -0.1097841,0 -0.2653107,-0.283606 -0.2012704,-0.356794 -0.5397703,-0.631254 2.6988511,-0.841675 4.363905,-2.30546 0.4025406,-0.365945 0.6038109,-0.658702 0.5763647,0.256163 0.9331621,0.484878 0.1921215,0.13723 0.1921215,0.228716 z m 9.4414037,2.177378 q -0.292756,0.247014 -0.494027,0.649555 -0.146379,0.301905 -0.256162,0.301905 -0.0183,0 -0.283609,-0.07319 -2.607363,-0.933163 -4.857932,-3.000758 -0.06404,-0.06404 -0.06404,-0.109784 0,-0.05488 0.182972,-0.173824 l 0.503176,-0.292756 q 0.13723,-0.07319 0.182974,-0.07319 0.05489,0 0.118933,0.05488 2.058444,1.848027 4.967714,2.717148 z"
         style="font-style:normal;font-variant:normal;font-weight:normal;font-stretch:normal;font-family:'Segoe UI';-inkscape-font-specification:'Segoe UI';fill:#2b8eff;fill-opacity:1;stroke-width:0.468412"
         id="path1406" />
    </g>
  </g>
</svg>
